<?xml version="1.0" encoding="UTF-8" standalone="no"?>
<!DOCTYPE svg PUBLIC "-//W3C//DTD SVG 1.1//EN" "http://www.w3.org/Graphics/SVG/1.1/DTD/svg11.dtd">
<svg width="100%" height="100%" viewBox="0 0 128 128" version="1.1" xmlns="http://www.w3.org/2000/svg" xmlns:xlink="http://www.w3.org/1999/xlink" xml:space="preserve" xmlns:serif="http://www.serif.com/" style="fill-rule:evenodd;clip-rule:evenodd;stroke-linejoin:round;stroke-miterlimit:2;">
    <path d="M38.419,-0L55.473,9.846L72.527,0L89.581,9.846L89.581,29.538L106.635,39.385L106.635,59.077L89.581,68.923L78.622,62.596L89.581,68.923L89.581,88.615L89.581,68.923L106.635,59.077L123.689,68.923L123.689,88.615L106.635,98.462L106.635,118.154L89.581,128L72.527,118.154L55.473,128L38.419,118.154L21.365,128L4.311,118.154L4.311,98.462L21.365,88.615L38.419,98.462L55.473,88.615L72.527,98.462L55.473,88.615L55.473,68.923L38.419,59.077L21.365,68.923L4.311,59.077L4.311,39.385L21.365,29.538L21.365,9.846L38.419,-0ZM7.358,100.221L7.358,116.394L21.365,124.481L35.371,116.394L35.371,100.221L21.365,92.134L7.358,100.221ZM58.521,70.683L58.521,86.856L72.527,94.942L86.533,86.856L86.533,70.683L72.527,62.596L58.521,70.683ZM55.473,29.538L38.419,39.385L55.473,29.538L55.473,27.779L55.473,29.538ZM58.521,11.606L58.521,27.779L72.527,35.866L86.533,27.779L86.533,11.606L72.527,3.519L58.521,11.606Z" style="fill:white;"/>
</svg>
