<svg xmlns="http://www.w3.org/2000/svg" version="1.1" xmlns:xlink="http://www.w3.org/1999/xlink" xmlns:svgjs="http://svgjs.dev/svgjs" viewBox="0 0 325 100"><rect width="100%" height="100%" fill="hsl(292, 100%, 22%)"></rect><g fill="hsl(292, 63%, 78%)">
    <rect width="100%" height="40" fill="hsl(292, 63%, 78%)"></rect>

    <rect x="0" width="7.69%" height="59.340061146189655" rx="15"></rect>
      <rect x="50" width="7.69%" height="80.0968772800701" rx="15"></rect>
      <rect x="100" width="7.69%" height="65.14430029802182" rx="15"></rect>
      <rect x="150" width="7.69%" height="83.07876220381182" rx="15"></rect>
      <rect x="200" width="7.69%" height="88.98525222743828" rx="15"></rect>
      <rect x="250" width="7.69%" height="66.51336910451835" rx="15"></rect>
      <rect x="300" width="7.69%" height="64.436827058134" rx="15"></rect>
  </g><g fill="hsl(292, 100%, 22%)">
    <rect x="25" y="8.267928020697353" width="7.69%" height="60" rx="15"></rect>
      <rect x="75" y="7.519154791849589" width="7.69%" height="60" rx="15"></rect>
      <rect x="125" y="26.7240958028788" width="7.69%" height="60" rx="15"></rect>
      <rect x="175" y="9.85648772178668" width="7.69%" height="60" rx="15"></rect>
      <rect x="225" y="18.82456653239167" width="7.69%" height="60" rx="15"></rect>
      <rect x="275" y="15.070690612731221" width="7.69%" height="60" rx="15"></rect>
  </g></svg>